<?xml version="1.0" encoding="utf-8"?>
<!-- Generator: Adobe Illustrator 22.1.0, SVG Export Plug-In . SVG Version: 6.00 Build 0)  -->
<svg version="1.1" id="Layer_1" xmlns="http://www.w3.org/2000/svg" xmlns:xlink="http://www.w3.org/1999/xlink" x="0px" y="0px"
	 viewBox="0 0 20.6 12" style="enable-background:new 0 0 20.6 12;" xml:space="preserve">
<style type="text/css">
	.st0{fill:#6CACDD;}
</style>
<g>
	<path d="M0,5.5c0.1-0.1,0-0.2,0.1-0.4c0.1-0.7,0.5-1.3,1-1.8C1.7,2.7,2.4,2.2,3.3,2C4.1,1.9,4.9,2,5.7,2.2c0.8,0.2,1.5,0.6,2.2,1.1
		c0.1,0.1,0.1,0,0.2,0c0.1-0.2,0.2-0.3,0.4-0.5c0.5,1,1,2,1.5,3C8.8,5.5,7.8,5.4,6.7,5.2C6.8,5,6.9,4.9,7.1,4.7
		c0-0.1,0.1-0.2,0.1-0.2c0-0.1-0.1-0.1-0.2-0.1C6.3,4,5.7,3.7,4.9,3.5C4.1,3.4,3.3,3.5,2.6,4C2,4.4,1.6,5.1,1.5,5.8
		C1.4,6.4,1.5,7,1.7,7.5C1.9,8,2.4,8.4,2.8,8.6C3.9,9.2,5,9.2,6.1,8.8c0.2-0.1,0.3-0.1,0.5-0.2c0.1,0,0.1,0,0.1,0
		c0.6,1.1,1.4,1.8,2.5,2.3c0.7,0.3,1.4,0.4,2.2,0.3c0.9-0.1,1.8-0.4,2.6-0.9c0,0,0,0,0.1,0c0,0,0,0,0,0c0,0,0,0,0,0
		c-0.8,0.6-1.6,1.1-2.6,1.4c-0.3,0.1-0.7,0.2-1.1,0.2c0,0,0,0,0,0c-0.1,0-0.1,0-0.2,0c-0.1,0-0.1,0-0.2,0c0,0-0.1,0-0.1,0
		c0,0,0,0,0,0c0,0-0.1,0-0.1,0c-0.2,0-0.4,0-0.6-0.1c-0.5-0.1-1-0.3-1.4-0.6c-0.4-0.2-0.8-0.5-1.1-0.9c-0.3-0.3-0.6-0.6-0.8-1
		C5.6,9.3,5.5,9.3,5.4,9.3C5.1,9.4,4.7,9.5,4.4,9.6C3.4,9.6,2.6,9.5,1.8,9C1.5,8.9,1.2,8.7,1,8.4c-0.6-0.6-0.9-1.2-1-2
		c0,0,0-0.1,0-0.1c0,0,0-0.1,0-0.1c0,0,0,0,0-0.1c0,0,0,0,0,0C0,6,0,6,0,5.9c0,0,0-0.1,0-0.1c0,0,0-0.1,0-0.1c0,0,0,0,0-0.1
		C0,5.6,0,5.6,0,5.5C0,5.5,0,5.5,0,5.5z"/>
	<path class="st0" d="M6.6,1.6C7.4,1,8.2,0.5,9.1,0.2C9.5,0.1,9.9,0,10.4,0c0.1,0,0.3,0,0.4,0c0.6,0,1.2,0.1,1.7,0.4
		c1,0.5,1.8,1.3,2.5,2.2c0.1,0.1,0.1,0.1,0.2,0.1c0.6-0.2,1.1-0.3,1.7-0.3c0.9,0,1.7,0.3,2.4,0.9c0.7,0.6,1.1,1.3,1.2,2.3
		c0.1,1-0.1,1.9-0.7,2.7c-0.7,0.9-1.7,1.5-2.8,1.6c-0.9,0.1-1.7,0-2.6-0.3c-0.6-0.2-1.3-0.6-1.8-1c-0.1,0-0.1,0-0.1,0
		c-0.1,0.2-0.2,0.4-0.3,0.6c-0.5-1-1.1-2-1.6-3c0.2,0,0.3,0,0.5,0.1c0.5,0.1,1,0.1,1.5,0.2c0.3,0,0.6,0.1,1,0.1c0.1,0,0.1,0,0,0.1
		c-0.1,0.2-0.2,0.5-0.3,0.7c0,0.1,0,0.1,0,0.1c0.6,0.4,1.3,0.7,2,0.9c0.6,0.1,1.3,0.2,1.9-0.1c0.9-0.4,1.5-1.1,1.7-2
		c0.1-0.6,0.1-1.3-0.2-1.9c-0.2-0.5-0.6-0.8-1-1c-0.6-0.4-1.3-0.5-2-0.5c-0.6,0-1.2,0.2-1.8,0.5c-0.1,0.1-0.1,0-0.2-0.1
		c-0.5-0.9-1.2-1.6-2.2-2.1c-0.7-0.4-1.4-0.5-2.2-0.5c-0.7,0-1.4,0.2-2,0.5C7.2,1.3,6.9,1.5,6.6,1.6C6.6,1.6,6.6,1.6,6.6,1.6z"/>
</g>
</svg>
